<svg width="12" height="12" viewBox="0 0 12 12" xmlns="http://www.w3.org/2000/svg">
    <path d="M7.00001 -4.37113e-07L7.00001 12L8.00001 12L8.00001 -3.4969e-07L7.00001 -4.37113e-07Z" fill="#333333"/>
    <path d="M5.00001 12L5.00001 -6.11959e-07L4.00001 -6.99381e-07L4.00001 12L5.00001 12Z" fill="#333333"/>
    <path d="M11.6465 5.79291L9.64648 3.79291L8.93945 4.5L10.5859 6.14645L8.93945 7.79291L9.64648 8.5L11.6465 6.5L12 6.14645L11.6465 5.79291Z" fill="#333333"/>
    <path d="M0.353517 5.79291L2.35352 3.79291L3.06055 4.5L1.41406 6.14645L3.06055 7.79291L2.35352 8.5L0.353517 6.5L1.46541e-06 6.14645L0.353517 5.79291Z" fill="#333333"/>
</svg>
