<svg width="12" height="12" viewBox="0 0 12 12" xmlns="http://www.w3.org/2000/svg">
    <mask id="path-1-inside-1" fill="white">
        <path fill-rule="evenodd" clip-rule="evenodd" d="M1 5C1 2.79086 2.79086 1 5 1C6.6222 1 8.01886 1.96566 8.6465 3.35351C10.0343 3.98114 11 5.3778 11 7C11 9.20914 9.20914 11 7 11C5.3778 11 3.98114 10.0343 3.35351 8.6465C1.96566 8.01886 1 6.6222 1 5ZM3.00723 7.24256C2.38929 6.69305 2 5.89199 2 5C2 3.34315 3.34315 2 5 2C5.89199 2 6.69305 2.38929 7.24256 3.00723C7.71376 3.53712 8 4.23513 8 5C8 6.65685 6.65685 8 5 8C4.23513 8 3.53712 7.71376 3.00723 7.24256Z"/>
    </mask>
    <path fill-rule="evenodd" clip-rule="evenodd" d="M1 5C1 2.79086 2.79086 1 5 1C6.6222 1 8.01886 1.96566 8.6465 3.35351C10.0343 3.98114 11 5.3778 11 7C11 9.20914 9.20914 11 7 11C5.3778 11 3.98114 10.0343 3.35351 8.6465C1.96566 8.01886 1 6.6222 1 5ZM3.00723 7.24256C2.38929 6.69305 2 5.89199 2 5C2 3.34315 3.34315 2 5 2C5.89199 2 6.69305 2.38929 7.24256 3.00723C7.71376 3.53712 8 4.23513 8 5C8 6.65685 6.65685 8 5 8C4.23513 8 3.53712 7.71376 3.00723 7.24256Z" fill="#333333"/>
    <path d="M3.35351 8.6465L4.26466 8.23444L4.10924 7.89076L3.76557 7.73534L3.35351 8.6465ZM8.6465 3.35351L7.73534 3.76557L7.89076 4.10924L8.23444 4.26466L8.6465 3.35351ZM3.00723 7.24256L3.67175 6.49529L3.00723 7.24256ZM7.24256 3.00723L6.49529 3.67175L7.24256 3.00723ZM10 7C10 8.65685 8.65685 10 7 10V12C9.76142 12 12 9.76142 12 7H10ZM5 0C2.23858 0 0 2.23858 0 5H2C2 3.34315 3.34315 2 5 2V0ZM7 5C7 6.10457 6.10457 7 5 7V9C7.20914 9 9 7.20914 9 5H7ZM3 5C3 3.89543 3.89543 3 5 3V1C2.79086 1 1 2.79086 1 5H3ZM0 5C0 7.02929 1.20883 8.7741 2.94145 9.55765L3.76557 7.73534C2.72249 7.26362 2 6.21511 2 5H0ZM2.44235 9.05856C3.2259 10.7912 4.97071 12 7 12V10C5.78489 10 4.73638 9.27751 4.26466 8.23444L2.44235 9.05856ZM12 7C12 4.97071 10.7912 3.2259 9.05856 2.44235L8.23444 4.26466C9.27751 4.73638 10 5.78489 10 7H12ZM9.55765 2.94145C8.7741 1.20883 7.02929 0 5 0V2C6.21511 2 7.26362 2.72249 7.73534 3.76557L9.55765 2.94145ZM6.49529 3.67175C6.80999 4.02564 7 4.48943 7 5H9C9 3.98084 8.61754 3.04859 7.98983 2.34272L6.49529 3.67175ZM5 7C4.48943 7 4.02564 6.80999 3.67175 6.49529L2.34272 7.98983C3.04859 8.61754 3.98084 9 5 9V7ZM5 3C5.59454 3 6.1275 3.25816 6.49529 3.67175L7.98983 2.34272C7.2586 1.52041 6.18943 1 5 1V3ZM3.67175 6.49529C3.25816 6.1275 3 5.59454 3 5H1C1 6.18943 1.52041 7.2586 2.34272 7.98983L3.67175 6.49529Z" fill="#333333" mask="url(#path-1-inside-1)"/>
</svg>
