<svg width="12" height="12" viewBox="0 0 12 12" xmlns="http://www.w3.org/2000/svg">
    <path d="M2.03207 1.43609C2.58207 2.90609 2.85207 4.45109 2.85207 5.99609C2.85207 7.54109 2.57707 9.08609 2.03207 10.5561C2.01207 10.6111 2.00207 10.6661 2.00207 10.7111C2.00207 10.8811 2.11707 10.9961 2.31707 10.9961L9.68707 10.9961C9.88707 10.9961 10.0021 10.8811 10.0021 10.7111C10.0021 10.6611 9.99207 10.6111 9.97207 10.5561C9.42207 9.08609 9.14707 7.54109 9.14707 5.99609C9.14707 4.45109 9.42207 2.90609 9.96707 1.43609C9.99207 1.38109 10.0021 1.32609 10.0021 1.28109C10.0021 1.11609 9.88707 0.996094 9.68707 0.996094L2.31207 0.996094C2.11707 0.996094 1.99707 1.11609 1.99707 1.28109C2.00207 1.33109 2.01207 1.38109 2.03207 1.43609ZM8.73207 1.99609C8.34707 3.29609 8.15207 4.63609 8.15207 5.99609C8.15207 7.35609 8.34707 8.69609 8.73207 9.99609L3.27707 9.99609C3.66207 8.69609 3.85707 7.35609 3.85707 5.99609C3.85707 4.63609 3.66207 3.29609 3.27707 1.99609L8.73207 1.99609Z" fill="#333333"/>
</svg>
