<svg width="12" height="12" viewBox="0 0 12 12" xmlns="http://www.w3.org/2000/svg">
    <path d="M8.5 5.5C9.33 5.5 9.995 4.83 9.995 4C9.995 3.17 9.33 2.5 8.5 2.5C7.67 2.5 7 3.17 7 4C7 4.83 7.67 5.5 8.5 5.5ZM4.5 5.5C5.33 5.5 5.995 4.83 5.995 4C5.995 3.17 5.33 2.5 4.5 2.5C3.67 2.5 3 3.17 3 4C3 4.83 3.67 5.5 4.5 5.5ZM4.5 6.5C3.335 6.5 1 7.085 1 8.25V9.5H8V8.25C8 7.085 5.665 6.5 4.5 6.5ZM8.5 6.5C8.355 6.5 8.19 6.51 8.015 6.525C8.595 6.945 9 7.51 9 8.25V9.5H12V8.25C12 7.085 9.665 6.5 8.5 6.5Z" fill="#333333"/>
</svg>
