<svg width="14" height="12" viewBox="0 0 14 12" xmlns="http://www.w3.org/2000/svg">
    <path fill-rule="evenodd" clip-rule="evenodd" d="M7.00024 1.75C4.28735 1.75 1.97266 3.43781 1.03516 5.81668L0.962891 6L1.03516 6.18332C1.97266 8.56219 4.28735 10.25 7.00024 10.25C9.71338 10.25 12.0281 8.56219 12.9656 6.18332L13.0378 6L12.9656 5.81668C12.0281 3.43781 9.71338 1.75 7.00024 1.75ZM7.00024 9.25C4.78345 9.25 2.87817 7.9137 2.04175 6C2.87817 4.0863 4.78345 2.75 7.00024 2.75C9.21704 2.75 11.1223 4.0863 11.959 6C11.1223 7.9137 9.21704 9.25 7.00024 9.25ZM7.00024 8C8.10474 8 9.00024 7.10458 9.00024 6C9.00024 4.89542 8.10474 4 7.00024 4C5.89575 4 5.00024 4.89542 5.00024 6C5.00024 7.10458 5.89575 8 7.00024 8Z" fill="#333333"/>
</svg>
